<svg width="64" height="64" viewBox="0 0 64 64" fill="none" xmlns="http://www.w3.org/2000/svg">
  <circle cx="32" cy="32" r="32" fill="#059669"/>
  <path d="M32 16C28.6863 16 26 18.6863 26 22V26H24C21.7909 26 20 27.7909 20 30V46C20 48.2091 21.7909 50 24 50H40C42.2091 50 44 48.2091 44 46V30C44 27.7909 42.2091 26 40 26H38V22C38 18.6863 35.3137 16 32 16ZM36 26H28V22C28 20.8954 28.8954 20 30 20H34C35.1046 20 36 20.8954 36 22V26ZM22 30C22 29.4477 22.4477 29 23 29H41C41.5523 29 42 29.4477 42 30V46C42 46.5523 41.5523 47 41 47H23C22.4477 47 22 46.5523 22 46V30Z" fill="white"/>
  <circle cx="32" cy="36" r="3" fill="white"/>
  <path d="M29 41C29 39.3431 30.3431 38 32 38C33.6569 38 35 39.3431 35 41H29Z" fill="white"/>
</svg>
